%TF.GenerationSoftware,KiCad,Pcbnew,5.1.6-c6e7f7d~87~ubuntu18.04.1*%
%TF.CreationDate,2023-11-19T23:26:27+00:00*%
%TF.ProjectId,ws2812b_rgb_button,77733238-3132-4625-9f72-67625f627574,1.0*%
%TF.SameCoordinates,Original*%
%TF.FileFunction,Copper,L1,Top*%
%TF.FilePolarity,Positive*%
%FSLAX46Y46*%
G04 Gerber Fmt 4.6, Leading zero omitted, Abs format (unit mm)*
G04 Created by KiCad (PCBNEW 5.1.6-c6e7f7d~87~ubuntu18.04.1) date 2023-11-19 23:26:27*
%MOMM*%
%LPD*%
G01*
G04 APERTURE LIST*
%TA.AperFunction,ComponentPad*%
%ADD10O,1.700000X1.950000*%
%TD*%
%TA.AperFunction,ViaPad*%
%ADD11C,0.800000*%
%TD*%
%TA.AperFunction,Conductor*%
%ADD12C,0.254000*%
%TD*%
G04 APERTURE END LIST*
D10*
%TO.P,J1,4*%
%TO.N,/DOUT*%
X96259000Y-75946000D03*
%TO.P,J1,3*%
%TO.N,/DIN*%
X98759000Y-75946000D03*
%TO.P,J1,2*%
%TO.N,GND*%
X101259000Y-75946000D03*
%TO.P,J1,1*%
%TO.N,/VDD*%
%TA.AperFunction,ComponentPad*%
G36*
G01*
X104609000Y-75221000D02*
X104609000Y-76671000D01*
G75*
G02*
X104359000Y-76921000I-250000J0D01*
G01*
X103159000Y-76921000D01*
G75*
G02*
X102909000Y-76671000I0J250000D01*
G01*
X102909000Y-75221000D01*
G75*
G02*
X103159000Y-74971000I250000J0D01*
G01*
X104359000Y-74971000D01*
G75*
G02*
X104609000Y-75221000I0J-250000D01*
G01*
G37*
%TD.AperFunction*%
%TD*%
D11*
%TO.N,/VDD*%
X106680000Y-86995000D03*
X87122000Y-93853000D03*
X93853000Y-114046000D03*
X113919000Y-106680000D03*
%TD*%
D12*
%TO.N,/VDD*%
G36*
X106520090Y-84822556D02*
G01*
X106529599Y-84919524D01*
X106567287Y-85043949D01*
X106628523Y-85158632D01*
X106710958Y-85259165D01*
X106811421Y-85341684D01*
X106926052Y-85403018D01*
X106934996Y-85405735D01*
X108314719Y-86094802D01*
X109642339Y-86925638D01*
X110884223Y-87879902D01*
X112028922Y-88948795D01*
X113065898Y-90122480D01*
X113985615Y-91390160D01*
X114779593Y-92740148D01*
X115440526Y-94160024D01*
X115962325Y-95636708D01*
X116340189Y-97156609D01*
X116570636Y-98705718D01*
X116651549Y-100269806D01*
X116582178Y-101834423D01*
X116363162Y-103385206D01*
X115996521Y-104907850D01*
X115485630Y-106388336D01*
X114835187Y-107813055D01*
X114051189Y-109168867D01*
X113140854Y-110443288D01*
X112112562Y-111624592D01*
X110975772Y-112701907D01*
X109740974Y-113665297D01*
X108419514Y-114505908D01*
X107023573Y-115215989D01*
X105565988Y-115789011D01*
X104060211Y-116219686D01*
X102520077Y-116504058D01*
X100959782Y-116639505D01*
X99393682Y-116624781D01*
X97836202Y-116460020D01*
X96301699Y-116146744D01*
X94804273Y-115687829D01*
X93357730Y-115087508D01*
X91975390Y-114351308D01*
X90669964Y-113485997D01*
X89453489Y-112499555D01*
X88337162Y-111401062D01*
X87331259Y-110200628D01*
X86445051Y-108909321D01*
X85686678Y-107539001D01*
X85063142Y-106102316D01*
X84580177Y-104612480D01*
X84242228Y-103083209D01*
X84052408Y-101528580D01*
X84012469Y-99962936D01*
X84030783Y-99703535D01*
X91171401Y-99703535D01*
X91171401Y-100956465D01*
X91342008Y-102197726D01*
X91680045Y-103404195D01*
X92179214Y-104553397D01*
X92830216Y-105623925D01*
X93620926Y-106595838D01*
X94536613Y-107451030D01*
X95560219Y-108173570D01*
X96672678Y-108750000D01*
X97853266Y-109169581D01*
X99079990Y-109424497D01*
X100330000Y-109510000D01*
X101580010Y-109424497D01*
X102806734Y-109169581D01*
X103987322Y-108750000D01*
X105099781Y-108173570D01*
X106123387Y-107451030D01*
X107039074Y-106595838D01*
X107829784Y-105623925D01*
X108480786Y-104553397D01*
X108979955Y-103404195D01*
X109317992Y-102197726D01*
X109488599Y-100956465D01*
X109488599Y-99703535D01*
X109317992Y-98462274D01*
X108979955Y-97255805D01*
X108480786Y-96106603D01*
X107829784Y-95036075D01*
X107039074Y-94064162D01*
X106123387Y-93208970D01*
X105099781Y-92486430D01*
X103987322Y-91910000D01*
X102806734Y-91490419D01*
X101580010Y-91235503D01*
X100330000Y-91150000D01*
X99079990Y-91235503D01*
X97853266Y-91490419D01*
X96672678Y-91910000D01*
X95560219Y-92486430D01*
X94536613Y-93208970D01*
X93620926Y-94064162D01*
X92830216Y-95036075D01*
X92179214Y-96106603D01*
X91680045Y-97255805D01*
X91342008Y-98462274D01*
X91171401Y-99703535D01*
X84030783Y-99703535D01*
X84122773Y-98400659D01*
X84382307Y-96856147D01*
X84788682Y-95343619D01*
X85338151Y-93877012D01*
X86025665Y-92469812D01*
X86844889Y-91134982D01*
X87788271Y-89884828D01*
X88847135Y-88730845D01*
X90011736Y-87683657D01*
X91271326Y-86752924D01*
X92622930Y-85942038D01*
X93085637Y-85704274D01*
X93090794Y-85702710D01*
X93205451Y-85641425D01*
X93305949Y-85558948D01*
X93388426Y-85458450D01*
X93449711Y-85343793D01*
X93487451Y-85219383D01*
X93497001Y-85122419D01*
X93497000Y-75748050D01*
X94774000Y-75748050D01*
X94774000Y-76143949D01*
X94795487Y-76362110D01*
X94880401Y-76642033D01*
X95018294Y-76900013D01*
X95203866Y-77126134D01*
X95429986Y-77311706D01*
X95687966Y-77449599D01*
X95967889Y-77534513D01*
X96259000Y-77563185D01*
X96550110Y-77534513D01*
X96830033Y-77449599D01*
X97088013Y-77311706D01*
X97314134Y-77126134D01*
X97499706Y-76900014D01*
X97509000Y-76882626D01*
X97518294Y-76900013D01*
X97703866Y-77126134D01*
X97929986Y-77311706D01*
X98187966Y-77449599D01*
X98467889Y-77534513D01*
X98759000Y-77563185D01*
X99050110Y-77534513D01*
X99330033Y-77449599D01*
X99588013Y-77311706D01*
X99814134Y-77126134D01*
X99999706Y-76900014D01*
X100009000Y-76882626D01*
X100018294Y-76900013D01*
X100203866Y-77126134D01*
X100429986Y-77311706D01*
X100687966Y-77449599D01*
X100967889Y-77534513D01*
X101259000Y-77563185D01*
X101550110Y-77534513D01*
X101830033Y-77449599D01*
X102088013Y-77311706D01*
X102308945Y-77130392D01*
X102319498Y-77165180D01*
X102378463Y-77275494D01*
X102457815Y-77372185D01*
X102554506Y-77451537D01*
X102664820Y-77510502D01*
X102784518Y-77546812D01*
X102909000Y-77559072D01*
X103473250Y-77556000D01*
X103632000Y-77397250D01*
X103632000Y-76073000D01*
X103886000Y-76073000D01*
X103886000Y-77397250D01*
X104044750Y-77556000D01*
X104609000Y-77559072D01*
X104733482Y-77546812D01*
X104853180Y-77510502D01*
X104963494Y-77451537D01*
X105060185Y-77372185D01*
X105139537Y-77275494D01*
X105198502Y-77165180D01*
X105234812Y-77045482D01*
X105247072Y-76921000D01*
X105244000Y-76231750D01*
X105085250Y-76073000D01*
X103886000Y-76073000D01*
X103632000Y-76073000D01*
X103612000Y-76073000D01*
X103612000Y-75819000D01*
X103632000Y-75819000D01*
X103632000Y-74494750D01*
X103886000Y-74494750D01*
X103886000Y-75819000D01*
X105085250Y-75819000D01*
X105244000Y-75660250D01*
X105247072Y-74971000D01*
X105234812Y-74846518D01*
X105198502Y-74726820D01*
X105139537Y-74616506D01*
X105060185Y-74519815D01*
X104963494Y-74440463D01*
X104853180Y-74381498D01*
X104733482Y-74345188D01*
X104609000Y-74332928D01*
X104044750Y-74336000D01*
X103886000Y-74494750D01*
X103632000Y-74494750D01*
X103473250Y-74336000D01*
X102909000Y-74332928D01*
X102784518Y-74345188D01*
X102664820Y-74381498D01*
X102554506Y-74440463D01*
X102457815Y-74519815D01*
X102378463Y-74616506D01*
X102319498Y-74726820D01*
X102308945Y-74761608D01*
X102088014Y-74580294D01*
X101830034Y-74442401D01*
X101550111Y-74357487D01*
X101259000Y-74328815D01*
X100967890Y-74357487D01*
X100687967Y-74442401D01*
X100429987Y-74580294D01*
X100203866Y-74765866D01*
X100018294Y-74991986D01*
X100009000Y-75009374D01*
X99999706Y-74991986D01*
X99814134Y-74765866D01*
X99588014Y-74580294D01*
X99330034Y-74442401D01*
X99050111Y-74357487D01*
X98759000Y-74328815D01*
X98467890Y-74357487D01*
X98187967Y-74442401D01*
X97929987Y-74580294D01*
X97703866Y-74765866D01*
X97518294Y-74991986D01*
X97509000Y-75009374D01*
X97499706Y-74991986D01*
X97314134Y-74765866D01*
X97088014Y-74580294D01*
X96830034Y-74442401D01*
X96550111Y-74357487D01*
X96259000Y-74328815D01*
X95967890Y-74357487D01*
X95687967Y-74442401D01*
X95429987Y-74580294D01*
X95203866Y-74765866D01*
X95018294Y-74991986D01*
X94880401Y-75249966D01*
X94795487Y-75529889D01*
X94774000Y-75748050D01*
X93497000Y-75748050D01*
X93496999Y-66700000D01*
X106527722Y-66700000D01*
X106520090Y-84822556D01*
G37*
X106520090Y-84822556D02*
X106529599Y-84919524D01*
X106567287Y-85043949D01*
X106628523Y-85158632D01*
X106710958Y-85259165D01*
X106811421Y-85341684D01*
X106926052Y-85403018D01*
X106934996Y-85405735D01*
X108314719Y-86094802D01*
X109642339Y-86925638D01*
X110884223Y-87879902D01*
X112028922Y-88948795D01*
X113065898Y-90122480D01*
X113985615Y-91390160D01*
X114779593Y-92740148D01*
X115440526Y-94160024D01*
X115962325Y-95636708D01*
X116340189Y-97156609D01*
X116570636Y-98705718D01*
X116651549Y-100269806D01*
X116582178Y-101834423D01*
X116363162Y-103385206D01*
X115996521Y-104907850D01*
X115485630Y-106388336D01*
X114835187Y-107813055D01*
X114051189Y-109168867D01*
X113140854Y-110443288D01*
X112112562Y-111624592D01*
X110975772Y-112701907D01*
X109740974Y-113665297D01*
X108419514Y-114505908D01*
X107023573Y-115215989D01*
X105565988Y-115789011D01*
X104060211Y-116219686D01*
X102520077Y-116504058D01*
X100959782Y-116639505D01*
X99393682Y-116624781D01*
X97836202Y-116460020D01*
X96301699Y-116146744D01*
X94804273Y-115687829D01*
X93357730Y-115087508D01*
X91975390Y-114351308D01*
X90669964Y-113485997D01*
X89453489Y-112499555D01*
X88337162Y-111401062D01*
X87331259Y-110200628D01*
X86445051Y-108909321D01*
X85686678Y-107539001D01*
X85063142Y-106102316D01*
X84580177Y-104612480D01*
X84242228Y-103083209D01*
X84052408Y-101528580D01*
X84012469Y-99962936D01*
X84030783Y-99703535D01*
X91171401Y-99703535D01*
X91171401Y-100956465D01*
X91342008Y-102197726D01*
X91680045Y-103404195D01*
X92179214Y-104553397D01*
X92830216Y-105623925D01*
X93620926Y-106595838D01*
X94536613Y-107451030D01*
X95560219Y-108173570D01*
X96672678Y-108750000D01*
X97853266Y-109169581D01*
X99079990Y-109424497D01*
X100330000Y-109510000D01*
X101580010Y-109424497D01*
X102806734Y-109169581D01*
X103987322Y-108750000D01*
X105099781Y-108173570D01*
X106123387Y-107451030D01*
X107039074Y-106595838D01*
X107829784Y-105623925D01*
X108480786Y-104553397D01*
X108979955Y-103404195D01*
X109317992Y-102197726D01*
X109488599Y-100956465D01*
X109488599Y-99703535D01*
X109317992Y-98462274D01*
X108979955Y-97255805D01*
X108480786Y-96106603D01*
X107829784Y-95036075D01*
X107039074Y-94064162D01*
X106123387Y-93208970D01*
X105099781Y-92486430D01*
X103987322Y-91910000D01*
X102806734Y-91490419D01*
X101580010Y-91235503D01*
X100330000Y-91150000D01*
X99079990Y-91235503D01*
X97853266Y-91490419D01*
X96672678Y-91910000D01*
X95560219Y-92486430D01*
X94536613Y-93208970D01*
X93620926Y-94064162D01*
X92830216Y-95036075D01*
X92179214Y-96106603D01*
X91680045Y-97255805D01*
X91342008Y-98462274D01*
X91171401Y-99703535D01*
X84030783Y-99703535D01*
X84122773Y-98400659D01*
X84382307Y-96856147D01*
X84788682Y-95343619D01*
X85338151Y-93877012D01*
X86025665Y-92469812D01*
X86844889Y-91134982D01*
X87788271Y-89884828D01*
X88847135Y-88730845D01*
X90011736Y-87683657D01*
X91271326Y-86752924D01*
X92622930Y-85942038D01*
X93085637Y-85704274D01*
X93090794Y-85702710D01*
X93205451Y-85641425D01*
X93305949Y-85558948D01*
X93388426Y-85458450D01*
X93449711Y-85343793D01*
X93487451Y-85219383D01*
X93497001Y-85122419D01*
X93497000Y-75748050D01*
X94774000Y-75748050D01*
X94774000Y-76143949D01*
X94795487Y-76362110D01*
X94880401Y-76642033D01*
X95018294Y-76900013D01*
X95203866Y-77126134D01*
X95429986Y-77311706D01*
X95687966Y-77449599D01*
X95967889Y-77534513D01*
X96259000Y-77563185D01*
X96550110Y-77534513D01*
X96830033Y-77449599D01*
X97088013Y-77311706D01*
X97314134Y-77126134D01*
X97499706Y-76900014D01*
X97509000Y-76882626D01*
X97518294Y-76900013D01*
X97703866Y-77126134D01*
X97929986Y-77311706D01*
X98187966Y-77449599D01*
X98467889Y-77534513D01*
X98759000Y-77563185D01*
X99050110Y-77534513D01*
X99330033Y-77449599D01*
X99588013Y-77311706D01*
X99814134Y-77126134D01*
X99999706Y-76900014D01*
X100009000Y-76882626D01*
X100018294Y-76900013D01*
X100203866Y-77126134D01*
X100429986Y-77311706D01*
X100687966Y-77449599D01*
X100967889Y-77534513D01*
X101259000Y-77563185D01*
X101550110Y-77534513D01*
X101830033Y-77449599D01*
X102088013Y-77311706D01*
X102308945Y-77130392D01*
X102319498Y-77165180D01*
X102378463Y-77275494D01*
X102457815Y-77372185D01*
X102554506Y-77451537D01*
X102664820Y-77510502D01*
X102784518Y-77546812D01*
X102909000Y-77559072D01*
X103473250Y-77556000D01*
X103632000Y-77397250D01*
X103632000Y-76073000D01*
X103886000Y-76073000D01*
X103886000Y-77397250D01*
X104044750Y-77556000D01*
X104609000Y-77559072D01*
X104733482Y-77546812D01*
X104853180Y-77510502D01*
X104963494Y-77451537D01*
X105060185Y-77372185D01*
X105139537Y-77275494D01*
X105198502Y-77165180D01*
X105234812Y-77045482D01*
X105247072Y-76921000D01*
X105244000Y-76231750D01*
X105085250Y-76073000D01*
X103886000Y-76073000D01*
X103632000Y-76073000D01*
X103612000Y-76073000D01*
X103612000Y-75819000D01*
X103632000Y-75819000D01*
X103632000Y-74494750D01*
X103886000Y-74494750D01*
X103886000Y-75819000D01*
X105085250Y-75819000D01*
X105244000Y-75660250D01*
X105247072Y-74971000D01*
X105234812Y-74846518D01*
X105198502Y-74726820D01*
X105139537Y-74616506D01*
X105060185Y-74519815D01*
X104963494Y-74440463D01*
X104853180Y-74381498D01*
X104733482Y-74345188D01*
X104609000Y-74332928D01*
X104044750Y-74336000D01*
X103886000Y-74494750D01*
X103632000Y-74494750D01*
X103473250Y-74336000D01*
X102909000Y-74332928D01*
X102784518Y-74345188D01*
X102664820Y-74381498D01*
X102554506Y-74440463D01*
X102457815Y-74519815D01*
X102378463Y-74616506D01*
X102319498Y-74726820D01*
X102308945Y-74761608D01*
X102088014Y-74580294D01*
X101830034Y-74442401D01*
X101550111Y-74357487D01*
X101259000Y-74328815D01*
X100967890Y-74357487D01*
X100687967Y-74442401D01*
X100429987Y-74580294D01*
X100203866Y-74765866D01*
X100018294Y-74991986D01*
X100009000Y-75009374D01*
X99999706Y-74991986D01*
X99814134Y-74765866D01*
X99588014Y-74580294D01*
X99330034Y-74442401D01*
X99050111Y-74357487D01*
X98759000Y-74328815D01*
X98467890Y-74357487D01*
X98187967Y-74442401D01*
X97929987Y-74580294D01*
X97703866Y-74765866D01*
X97518294Y-74991986D01*
X97509000Y-75009374D01*
X97499706Y-74991986D01*
X97314134Y-74765866D01*
X97088014Y-74580294D01*
X96830034Y-74442401D01*
X96550111Y-74357487D01*
X96259000Y-74328815D01*
X95967890Y-74357487D01*
X95687967Y-74442401D01*
X95429987Y-74580294D01*
X95203866Y-74765866D01*
X95018294Y-74991986D01*
X94880401Y-75249966D01*
X94795487Y-75529889D01*
X94774000Y-75748050D01*
X93497000Y-75748050D01*
X93496999Y-66700000D01*
X106527722Y-66700000D01*
X106520090Y-84822556D01*
%TD*%
M02*
