%TF.GenerationSoftware,KiCad,Pcbnew,5.1.6-c6e7f7d~87~ubuntu18.04.1*%
%TF.CreationDate,2023-11-19T23:26:27+00:00*%
%TF.ProjectId,ws2812b_rgb_button,77733238-3132-4625-9f72-67625f627574,1.0*%
%TF.SameCoordinates,Original*%
%TF.FileFunction,Soldermask,Bot*%
%TF.FilePolarity,Negative*%
%FSLAX46Y46*%
G04 Gerber Fmt 4.6, Leading zero omitted, Abs format (unit mm)*
G04 Created by KiCad (PCBNEW 5.1.6-c6e7f7d~87~ubuntu18.04.1) date 2023-11-19 23:26:27*
%MOMM*%
%LPD*%
G01*
G04 APERTURE LIST*
%ADD10O,1.800000X2.050000*%
%ADD11R,1.600000X1.100000*%
%ADD12R,1.100000X1.600000*%
G04 APERTURE END LIST*
D10*
%TO.C,J1*%
X96259000Y-75946000D03*
X98759000Y-75946000D03*
X101259000Y-75946000D03*
G36*
G01*
X104659000Y-75185706D02*
X104659000Y-76706294D01*
G75*
G02*
X104394294Y-76971000I-264706J0D01*
G01*
X103123706Y-76971000D01*
G75*
G02*
X102859000Y-76706294I0J264706D01*
G01*
X102859000Y-75185706D01*
G75*
G02*
X103123706Y-74921000I264706J0D01*
G01*
X104394294Y-74921000D01*
G75*
G02*
X104659000Y-75185706I0J-264706D01*
G01*
G37*
%TD*%
D11*
%TO.C,D1*%
X97626000Y-89484000D03*
X97626000Y-86284000D03*
X102526000Y-89484000D03*
X102526000Y-86284000D03*
%TD*%
D12*
%TO.C,D2*%
X114376000Y-102907000D03*
X111176000Y-102907000D03*
X114376000Y-98007000D03*
X111176000Y-98007000D03*
%TD*%
D11*
%TO.C,D3*%
X102526000Y-111303000D03*
X102526000Y-114503000D03*
X97626000Y-111303000D03*
X97626000Y-114503000D03*
%TD*%
D12*
%TO.C,D4*%
X86284000Y-97880000D03*
X89484000Y-97880000D03*
X86284000Y-102780000D03*
X89484000Y-102780000D03*
%TD*%
%TO.C,C1*%
G36*
G01*
X104620750Y-85745500D02*
X105183250Y-85745500D01*
G75*
G02*
X105427000Y-85989250I0J-243750D01*
G01*
X105427000Y-86476750D01*
G75*
G02*
X105183250Y-86720500I-243750J0D01*
G01*
X104620750Y-86720500D01*
G75*
G02*
X104377000Y-86476750I0J243750D01*
G01*
X104377000Y-85989250D01*
G75*
G02*
X104620750Y-85745500I243750J0D01*
G01*
G37*
G36*
G01*
X104620750Y-87320500D02*
X105183250Y-87320500D01*
G75*
G02*
X105427000Y-87564250I0J-243750D01*
G01*
X105427000Y-88051750D01*
G75*
G02*
X105183250Y-88295500I-243750J0D01*
G01*
X104620750Y-88295500D01*
G75*
G02*
X104377000Y-88051750I0J243750D01*
G01*
X104377000Y-87564250D01*
G75*
G02*
X104620750Y-87320500I243750J0D01*
G01*
G37*
%TD*%
%TO.C,C2*%
G36*
G01*
X87422000Y-95785250D02*
X87422000Y-95222750D01*
G75*
G02*
X87665750Y-94979000I243750J0D01*
G01*
X88153250Y-94979000D01*
G75*
G02*
X88397000Y-95222750I0J-243750D01*
G01*
X88397000Y-95785250D01*
G75*
G02*
X88153250Y-96029000I-243750J0D01*
G01*
X87665750Y-96029000D01*
G75*
G02*
X87422000Y-95785250I0J243750D01*
G01*
G37*
G36*
G01*
X85847000Y-95785250D02*
X85847000Y-95222750D01*
G75*
G02*
X86090750Y-94979000I243750J0D01*
G01*
X86578250Y-94979000D01*
G75*
G02*
X86822000Y-95222750I0J-243750D01*
G01*
X86822000Y-95785250D01*
G75*
G02*
X86578250Y-96029000I-243750J0D01*
G01*
X86090750Y-96029000D01*
G75*
G02*
X85847000Y-95785250I0J243750D01*
G01*
G37*
%TD*%
%TO.C,C3*%
G36*
G01*
X95785250Y-115041500D02*
X95222750Y-115041500D01*
G75*
G02*
X94979000Y-114797750I0J243750D01*
G01*
X94979000Y-114310250D01*
G75*
G02*
X95222750Y-114066500I243750J0D01*
G01*
X95785250Y-114066500D01*
G75*
G02*
X96029000Y-114310250I0J-243750D01*
G01*
X96029000Y-114797750D01*
G75*
G02*
X95785250Y-115041500I-243750J0D01*
G01*
G37*
G36*
G01*
X95785250Y-113466500D02*
X95222750Y-113466500D01*
G75*
G02*
X94979000Y-113222750I0J243750D01*
G01*
X94979000Y-112735250D01*
G75*
G02*
X95222750Y-112491500I243750J0D01*
G01*
X95785250Y-112491500D01*
G75*
G02*
X96029000Y-112735250I0J-243750D01*
G01*
X96029000Y-113222750D01*
G75*
G02*
X95785250Y-113466500I-243750J0D01*
G01*
G37*
%TD*%
%TO.C,C4*%
G36*
G01*
X113365000Y-104747750D02*
X113365000Y-105310250D01*
G75*
G02*
X113121250Y-105554000I-243750J0D01*
G01*
X112633750Y-105554000D01*
G75*
G02*
X112390000Y-105310250I0J243750D01*
G01*
X112390000Y-104747750D01*
G75*
G02*
X112633750Y-104504000I243750J0D01*
G01*
X113121250Y-104504000D01*
G75*
G02*
X113365000Y-104747750I0J-243750D01*
G01*
G37*
G36*
G01*
X114940000Y-104747750D02*
X114940000Y-105310250D01*
G75*
G02*
X114696250Y-105554000I-243750J0D01*
G01*
X114208750Y-105554000D01*
G75*
G02*
X113965000Y-105310250I0J243750D01*
G01*
X113965000Y-104747750D01*
G75*
G02*
X114208750Y-104504000I243750J0D01*
G01*
X114696250Y-104504000D01*
G75*
G02*
X114940000Y-104747750I0J-243750D01*
G01*
G37*
%TD*%
M02*
