%TF.GenerationSoftware,KiCad,Pcbnew,5.1.6-c6e7f7d~87~ubuntu18.04.1*%
%TF.CreationDate,2023-11-19T23:26:27+00:00*%
%TF.ProjectId,ws2812b_rgb_button,77733238-3132-4625-9f72-67625f627574,1.0*%
%TF.SameCoordinates,Original*%
%TF.FileFunction,Paste,Bot*%
%TF.FilePolarity,Positive*%
%FSLAX46Y46*%
G04 Gerber Fmt 4.6, Leading zero omitted, Abs format (unit mm)*
G04 Created by KiCad (PCBNEW 5.1.6-c6e7f7d~87~ubuntu18.04.1) date 2023-11-19 23:26:27*
%MOMM*%
%LPD*%
G01*
G04 APERTURE LIST*
%ADD10R,1.500000X1.000000*%
%ADD11R,1.000000X1.500000*%
G04 APERTURE END LIST*
D10*
%TO.C,D1*%
X97626000Y-89484000D03*
X97626000Y-86284000D03*
X102526000Y-89484000D03*
X102526000Y-86284000D03*
%TD*%
D11*
%TO.C,D2*%
X114376000Y-102907000D03*
X111176000Y-102907000D03*
X114376000Y-98007000D03*
X111176000Y-98007000D03*
%TD*%
D10*
%TO.C,D3*%
X102526000Y-111303000D03*
X102526000Y-114503000D03*
X97626000Y-111303000D03*
X97626000Y-114503000D03*
%TD*%
D11*
%TO.C,D4*%
X86284000Y-97880000D03*
X89484000Y-97880000D03*
X86284000Y-102780000D03*
X89484000Y-102780000D03*
%TD*%
%TO.C,C1*%
G36*
G01*
X104645750Y-85795500D02*
X105158250Y-85795500D01*
G75*
G02*
X105377000Y-86014250I0J-218750D01*
G01*
X105377000Y-86451750D01*
G75*
G02*
X105158250Y-86670500I-218750J0D01*
G01*
X104645750Y-86670500D01*
G75*
G02*
X104427000Y-86451750I0J218750D01*
G01*
X104427000Y-86014250D01*
G75*
G02*
X104645750Y-85795500I218750J0D01*
G01*
G37*
G36*
G01*
X104645750Y-87370500D02*
X105158250Y-87370500D01*
G75*
G02*
X105377000Y-87589250I0J-218750D01*
G01*
X105377000Y-88026750D01*
G75*
G02*
X105158250Y-88245500I-218750J0D01*
G01*
X104645750Y-88245500D01*
G75*
G02*
X104427000Y-88026750I0J218750D01*
G01*
X104427000Y-87589250D01*
G75*
G02*
X104645750Y-87370500I218750J0D01*
G01*
G37*
%TD*%
%TO.C,C2*%
G36*
G01*
X87472000Y-95760250D02*
X87472000Y-95247750D01*
G75*
G02*
X87690750Y-95029000I218750J0D01*
G01*
X88128250Y-95029000D01*
G75*
G02*
X88347000Y-95247750I0J-218750D01*
G01*
X88347000Y-95760250D01*
G75*
G02*
X88128250Y-95979000I-218750J0D01*
G01*
X87690750Y-95979000D01*
G75*
G02*
X87472000Y-95760250I0J218750D01*
G01*
G37*
G36*
G01*
X85897000Y-95760250D02*
X85897000Y-95247750D01*
G75*
G02*
X86115750Y-95029000I218750J0D01*
G01*
X86553250Y-95029000D01*
G75*
G02*
X86772000Y-95247750I0J-218750D01*
G01*
X86772000Y-95760250D01*
G75*
G02*
X86553250Y-95979000I-218750J0D01*
G01*
X86115750Y-95979000D01*
G75*
G02*
X85897000Y-95760250I0J218750D01*
G01*
G37*
%TD*%
%TO.C,C3*%
G36*
G01*
X95760250Y-114991500D02*
X95247750Y-114991500D01*
G75*
G02*
X95029000Y-114772750I0J218750D01*
G01*
X95029000Y-114335250D01*
G75*
G02*
X95247750Y-114116500I218750J0D01*
G01*
X95760250Y-114116500D01*
G75*
G02*
X95979000Y-114335250I0J-218750D01*
G01*
X95979000Y-114772750D01*
G75*
G02*
X95760250Y-114991500I-218750J0D01*
G01*
G37*
G36*
G01*
X95760250Y-113416500D02*
X95247750Y-113416500D01*
G75*
G02*
X95029000Y-113197750I0J218750D01*
G01*
X95029000Y-112760250D01*
G75*
G02*
X95247750Y-112541500I218750J0D01*
G01*
X95760250Y-112541500D01*
G75*
G02*
X95979000Y-112760250I0J-218750D01*
G01*
X95979000Y-113197750D01*
G75*
G02*
X95760250Y-113416500I-218750J0D01*
G01*
G37*
%TD*%
%TO.C,C4*%
G36*
G01*
X113315000Y-104772750D02*
X113315000Y-105285250D01*
G75*
G02*
X113096250Y-105504000I-218750J0D01*
G01*
X112658750Y-105504000D01*
G75*
G02*
X112440000Y-105285250I0J218750D01*
G01*
X112440000Y-104772750D01*
G75*
G02*
X112658750Y-104554000I218750J0D01*
G01*
X113096250Y-104554000D01*
G75*
G02*
X113315000Y-104772750I0J-218750D01*
G01*
G37*
G36*
G01*
X114890000Y-104772750D02*
X114890000Y-105285250D01*
G75*
G02*
X114671250Y-105504000I-218750J0D01*
G01*
X114233750Y-105504000D01*
G75*
G02*
X114015000Y-105285250I0J218750D01*
G01*
X114015000Y-104772750D01*
G75*
G02*
X114233750Y-104554000I218750J0D01*
G01*
X114671250Y-104554000D01*
G75*
G02*
X114890000Y-104772750I0J-218750D01*
G01*
G37*
%TD*%
M02*
