%TF.GenerationSoftware,KiCad,Pcbnew,5.1.6-c6e7f7d~87~ubuntu18.04.1*%
%TF.CreationDate,2023-11-19T23:26:27+00:00*%
%TF.ProjectId,ws2812b_rgb_button,77733238-3132-4625-9f72-67625f627574,1.0*%
%TF.SameCoordinates,Original*%
%TF.FileFunction,Legend,Bot*%
%TF.FilePolarity,Positive*%
%FSLAX46Y46*%
G04 Gerber Fmt 4.6, Leading zero omitted, Abs format (unit mm)*
G04 Created by KiCad (PCBNEW 5.1.6-c6e7f7d~87~ubuntu18.04.1) date 2023-11-19 23:26:27*
%MOMM*%
%LPD*%
G01*
G04 APERTURE LIST*
%ADD10C,0.120000*%
%ADD11C,0.150000*%
G04 APERTURE END LIST*
D10*
%TO.C,D1*%
X96426000Y-90634000D02*
X96426000Y-89484000D01*
X103726000Y-90634000D02*
X96426000Y-90634000D01*
X103726000Y-85134000D02*
X96426000Y-85134000D01*
%TO.C,D2*%
X115526000Y-104107000D02*
X115526000Y-96807000D01*
X110026000Y-104107000D02*
X110026000Y-96807000D01*
X110026000Y-96807000D02*
X111176000Y-96807000D01*
%TO.C,D3*%
X103726000Y-110153000D02*
X103726000Y-111303000D01*
X96426000Y-110153000D02*
X103726000Y-110153000D01*
X96426000Y-115653000D02*
X103726000Y-115653000D01*
%TO.C,D4*%
X85134000Y-96680000D02*
X85134000Y-103980000D01*
X90634000Y-96680000D02*
X90634000Y-103980000D01*
X90634000Y-103980000D02*
X89484000Y-103980000D01*
%TO.C,C1*%
X105412000Y-86857721D02*
X105412000Y-87183279D01*
X104392000Y-86857721D02*
X104392000Y-87183279D01*
%TO.C,C2*%
X86959221Y-96014000D02*
X87284779Y-96014000D01*
X86959221Y-94994000D02*
X87284779Y-94994000D01*
%TO.C,C3*%
X94994000Y-113929279D02*
X94994000Y-113603721D01*
X96014000Y-113929279D02*
X96014000Y-113603721D01*
%TO.C,C4*%
X113827779Y-104519000D02*
X113502221Y-104519000D01*
X113827779Y-105539000D02*
X113502221Y-105539000D01*
%TO.C,D1*%
D11*
X95988095Y-91511380D02*
X95988095Y-90511380D01*
X95750000Y-90511380D01*
X95607142Y-90559000D01*
X95511904Y-90654238D01*
X95464285Y-90749476D01*
X95416666Y-90939952D01*
X95416666Y-91082809D01*
X95464285Y-91273285D01*
X95511904Y-91368523D01*
X95607142Y-91463761D01*
X95750000Y-91511380D01*
X95988095Y-91511380D01*
X94464285Y-91511380D02*
X95035714Y-91511380D01*
X94750000Y-91511380D02*
X94750000Y-90511380D01*
X94845238Y-90654238D01*
X94940476Y-90749476D01*
X95035714Y-90797095D01*
X100679285Y-87320380D02*
X101250714Y-87320380D01*
X100965000Y-87320380D02*
X100965000Y-86320380D01*
X101060238Y-86463238D01*
X101155476Y-86558476D01*
X101250714Y-86606095D01*
%TO.C,D2*%
X111609095Y-96210380D02*
X111609095Y-95210380D01*
X111371000Y-95210380D01*
X111228142Y-95258000D01*
X111132904Y-95353238D01*
X111085285Y-95448476D01*
X111037666Y-95638952D01*
X111037666Y-95781809D01*
X111085285Y-95972285D01*
X111132904Y-96067523D01*
X111228142Y-96162761D01*
X111371000Y-96210380D01*
X111609095Y-96210380D01*
X110656714Y-95305619D02*
X110609095Y-95258000D01*
X110513857Y-95210380D01*
X110275761Y-95210380D01*
X110180523Y-95258000D01*
X110132904Y-95305619D01*
X110085285Y-95400857D01*
X110085285Y-95496095D01*
X110132904Y-95638952D01*
X110704333Y-96210380D01*
X110085285Y-96210380D01*
X112871285Y-102179380D02*
X113442714Y-102179380D01*
X113157000Y-102179380D02*
X113157000Y-101179380D01*
X113252238Y-101322238D01*
X113347476Y-101417476D01*
X113442714Y-101465095D01*
%TO.C,D3*%
X105767095Y-111196380D02*
X105767095Y-110196380D01*
X105529000Y-110196380D01*
X105386142Y-110244000D01*
X105290904Y-110339238D01*
X105243285Y-110434476D01*
X105195666Y-110624952D01*
X105195666Y-110767809D01*
X105243285Y-110958285D01*
X105290904Y-111053523D01*
X105386142Y-111148761D01*
X105529000Y-111196380D01*
X105767095Y-111196380D01*
X104862333Y-110196380D02*
X104243285Y-110196380D01*
X104576619Y-110577333D01*
X104433761Y-110577333D01*
X104338523Y-110624952D01*
X104290904Y-110672571D01*
X104243285Y-110767809D01*
X104243285Y-111005904D01*
X104290904Y-111101142D01*
X104338523Y-111148761D01*
X104433761Y-111196380D01*
X104719476Y-111196380D01*
X104814714Y-111148761D01*
X104862333Y-111101142D01*
X98901285Y-114371380D02*
X99472714Y-114371380D01*
X99187000Y-114371380D02*
X99187000Y-113371380D01*
X99282238Y-113514238D01*
X99377476Y-113609476D01*
X99472714Y-113657095D01*
%TO.C,D4*%
X90654095Y-105481380D02*
X90654095Y-104481380D01*
X90416000Y-104481380D01*
X90273142Y-104529000D01*
X90177904Y-104624238D01*
X90130285Y-104719476D01*
X90082666Y-104909952D01*
X90082666Y-105052809D01*
X90130285Y-105243285D01*
X90177904Y-105338523D01*
X90273142Y-105433761D01*
X90416000Y-105481380D01*
X90654095Y-105481380D01*
X89225523Y-104814714D02*
X89225523Y-105481380D01*
X89463619Y-104433761D02*
X89701714Y-105148047D01*
X89082666Y-105148047D01*
X86963285Y-99639380D02*
X87534714Y-99639380D01*
X87249000Y-99639380D02*
X87249000Y-98639380D01*
X87344238Y-98782238D01*
X87439476Y-98877476D01*
X87534714Y-98925095D01*
%TO.C,C1*%
X105957666Y-89892142D02*
X106005285Y-89939761D01*
X106148142Y-89987380D01*
X106243380Y-89987380D01*
X106386238Y-89939761D01*
X106481476Y-89844523D01*
X106529095Y-89749285D01*
X106576714Y-89558809D01*
X106576714Y-89415952D01*
X106529095Y-89225476D01*
X106481476Y-89130238D01*
X106386238Y-89035000D01*
X106243380Y-88987380D01*
X106148142Y-88987380D01*
X106005285Y-89035000D01*
X105957666Y-89082619D01*
X105005285Y-89987380D02*
X105576714Y-89987380D01*
X105291000Y-89987380D02*
X105291000Y-88987380D01*
X105386238Y-89130238D01*
X105481476Y-89225476D01*
X105576714Y-89273095D01*
%TO.C,C2*%
X89828666Y-94337142D02*
X89876285Y-94384761D01*
X90019142Y-94432380D01*
X90114380Y-94432380D01*
X90257238Y-94384761D01*
X90352476Y-94289523D01*
X90400095Y-94194285D01*
X90447714Y-94003809D01*
X90447714Y-93860952D01*
X90400095Y-93670476D01*
X90352476Y-93575238D01*
X90257238Y-93480000D01*
X90114380Y-93432380D01*
X90019142Y-93432380D01*
X89876285Y-93480000D01*
X89828666Y-93527619D01*
X89447714Y-93527619D02*
X89400095Y-93480000D01*
X89304857Y-93432380D01*
X89066761Y-93432380D01*
X88971523Y-93480000D01*
X88923904Y-93527619D01*
X88876285Y-93622857D01*
X88876285Y-93718095D01*
X88923904Y-93860952D01*
X89495333Y-94432380D01*
X88876285Y-94432380D01*
%TO.C,C3*%
X93765666Y-112879142D02*
X93813285Y-112926761D01*
X93956142Y-112974380D01*
X94051380Y-112974380D01*
X94194238Y-112926761D01*
X94289476Y-112831523D01*
X94337095Y-112736285D01*
X94384714Y-112545809D01*
X94384714Y-112402952D01*
X94337095Y-112212476D01*
X94289476Y-112117238D01*
X94194238Y-112022000D01*
X94051380Y-111974380D01*
X93956142Y-111974380D01*
X93813285Y-112022000D01*
X93765666Y-112069619D01*
X93432333Y-111974380D02*
X92813285Y-111974380D01*
X93146619Y-112355333D01*
X93003761Y-112355333D01*
X92908523Y-112402952D01*
X92860904Y-112450571D01*
X92813285Y-112545809D01*
X92813285Y-112783904D01*
X92860904Y-112879142D01*
X92908523Y-112926761D01*
X93003761Y-112974380D01*
X93289476Y-112974380D01*
X93384714Y-112926761D01*
X93432333Y-112879142D01*
%TO.C,C4*%
X111545666Y-107037142D02*
X111593285Y-107084761D01*
X111736142Y-107132380D01*
X111831380Y-107132380D01*
X111974238Y-107084761D01*
X112069476Y-106989523D01*
X112117095Y-106894285D01*
X112164714Y-106703809D01*
X112164714Y-106560952D01*
X112117095Y-106370476D01*
X112069476Y-106275238D01*
X111974238Y-106180000D01*
X111831380Y-106132380D01*
X111736142Y-106132380D01*
X111593285Y-106180000D01*
X111545666Y-106227619D01*
X110688523Y-106465714D02*
X110688523Y-107132380D01*
X110926619Y-106084761D02*
X111164714Y-106799047D01*
X110545666Y-106799047D01*
%TD*%
M02*
